{
	"asset":{
		"version":"2.0",
		"generator":"Created using the official Cinema 4D glTF Exporter 1.000x284978"
	},
	"scenes":[{
		"nodes":[0,
		2]
	}],
	"nodes":[{
		"name":"BOTTLE LV ",
		"translation":[-5.10772180557251,
		46.30055236816406,
		-24.37751007080078],
		"scale":[1.0,
		1.0,
		1.0],
		"rotation":[0.39029407501220705,
		-0.7815634608268738,
		0.016394134610891343,
		0.4863746762275696],
		"children":[1]
	},
	{
		"name":"Top_01",
		"mesh":0,
		"translation":[17.52216339111328,
		-11.551033973693848,
		-0.3332372009754181],
		"scale":[1.0,
		1.0,
		1.0],
		"rotation":[0.23381847143173219,
		-0.8092706203460693,
		0.20072543621063233,
		-0.5001192688941956]
	},
	{
		"name":"Camera",
		"translation":[51.6267204284668,
		89.004638671875,
		57.990989685058597],
		"scale":[1.0,
		1.0,
		1.0],
		"rotation":[0.15606123208999635,
		-0.3771842122077942,
		-0.06464267522096634,
		-0.9106032252311707],
		"camera":0
	}],
	"meshes":[{
		"name":"Top_01",
		"primitives":[{
			"attributes":{
				"POSITION":1,
				"NORMAL":2,
				"TEXCOORD_0":3
			},
			"indices":0,
			"material":0
		}]
	}],
	"cameras":[{
		"type":"perspective",
		"perspective":{
			"znear":0.009999999776482582,
			"zfar":10000000000.0,
			"aspectRatio":1.7777777910232545,
			"yfov":0.5483348965644836
		}
	}],
	"accessors":[{
		"bufferView":0,
		"type":"SCALAR",
		"componentType":5123,
		"count":27264,
		"byteOffset":0,
		"min":[0],
		"max":[4995]
	},
	{
		"bufferView":1,
		"type":"VEC3",
		"componentType":5126,
		"count":4996,
		"byteOffset":0,
		"min":[-72.58088684082031,
		-0.14830605685710908,
		-27.3205509185791],
		"max":[7.9695048332214359,
		93.95759582519531,
		19.58124542236328]
	},
	{
		"bufferView":1,
		"type":"VEC3",
		"componentType":5126,
		"count":4996,
		"byteOffset":12,
		"min":[-0.9980948567390442,
		-0.9992073774337769,
		-0.99745774269104],
		"max":[0.9996150135993958,
		0.9993016719818115,
		0.9974883198738098]
	},
	{
		"bufferView":1,
		"type":"VEC2",
		"componentType":5126,
		"count":4996,
		"byteOffset":24,
		"min":[0.00045780724030919373,
		0.0004999637603759766],
		"max":[0.9980059266090393,
		0.9994999170303345]
	}],
	"bufferViews":[{
		"byteLength":54528,
		"buffer":0,
		"byteOffset":0,
		"target":34963
	},
	{
		"byteLength":159872,
		"buffer":0,
		"byteOffset":54528,
		"target":34962,
		"byteStride":32
	}],
	"buffers":[{
		"uri":"data:application/octet-stream;base64,",
		"byteLength":214400
	}],
	"materials":[{
		"pbrMetallicRoughness":{
			"baseColorFactor":[0.030069694244604266,
			0.029855900611401567,
			0.029855900611401567,
			1.0],
			"metallicFactor":0.01,
			"roughnessFactor":0.91
		},
		"emissiveFactor":[0.0,
		0.0,
		0.0],
		"alphaMode":"OPAQUE",
		"doubleSided":true,
		"name":"Mat"
	}]
}