{
	"nodes":[{
		"name":"Camera",
		"translation":[-0.095182865858078,
		1.0875990390777588,
		4.013461112976074],
		"rotation":[0.015321565791964531,
		-0.01661529205739498,
		0.00025463735801167786,
		0.9997445344924927],
		"scale":[1.0,
		1.0,
		1.0],
		"camera":0
	},
	{
		"name":"Earth",
		"translation":[-0.0195047277957201,
		-0.12371616065502167,
		-0.06528175622224808],
		"rotation":[-0.6420484185218811,
		0.2520250380039215,
		0.25475451350212099,
		0.677759051322937],
		"scale":[100.0,
		100.0,
		100.0],
		"mesh":0
	}],
	"asset":{
		"version":"2.0",
		"generator":"Created using the official Cinema 4D glTF Exporter 1.000x284978"
	},
	"scenes":[{
		"nodes":[0,
		1]
	}],
	"materials":[{
		"pbrMetallicRoughness":{
			"baseColorFactor":[0.800000011920929,
			0.800000011920929,
			0.800000011920929,
			1.0],
			"metallicFactor":0.0,
			"roughnessFactor":0.61
		},
		"emissiveFactor":[0.0,
		0.0,
		0.0],
		"alphaMode":"OPAQUE",
		"doubleSided":true,
		"name":"Earth.1"
	}],
	"meshes":[{
		"name":"Earth",
		"primitives":[{
			"attributes":{
				"POSITION":7,
				"NORMAL":8,
				"TEXCOORD_0":9
			},
			"indices":6,
			"material":0
		}]
	}],
	"cameras":[{
		"type":"perspective",
		"perspective":{
			"znear":0.009999999776482582,
			"zfar":10000000000.0,
			"aspectRatio":1.7777777910232545,
			"yfov":0.5483348965644836
		}
	}],
	"accessors":[{
		"bufferView":0,
		"type":"SCALAR",
		"componentType":5126,
		"count":3,
		"byteOffset":0,
		"min":[0.0],
		"max":[6.599999904632568]
	},
	{
		"bufferView":0,
		"type":"VEC3",
		"componentType":5126,
		"count":3,
		"byteOffset":12,
		"min":[-0.095182865858078,
		1.0875990390777588,
		4.013461112976074],
		"max":[-0.095182865858078,
		1.0875990390777588,
		4.013461112976074]
	},
	{
		"bufferView":1,
		"type":"SCALAR",
		"componentType":5126,
		"count":3,
		"byteOffset":0,
		"min":[0.0],
		"max":[6.599999904632568]
	},
	{
		"bufferView":1,
		"type":"VEC4",
		"componentType":5126,
		"count":3,
		"byteOffset":12,
		"min":[-0.015321565791964531,
		0.01661529205739498,
		-0.00025463735801167786,
		-0.9997445344924927],
		"max":[-0.015321565791964531,
		0.01661529205739498,
		-0.00025463735801167786,
		-0.9997445344924927]
	},
	{
		"bufferView":2,
		"type":"SCALAR",
		"componentType":5126,
		"count":3,
		"byteOffset":0,
		"min":[0.0],
		"max":[6.599999904632568]
	},
	{
		"bufferView":2,
		"type":"VEC3",
		"componentType":5126,
		"count":3,
		"byteOffset":12,
		"min":[1.0,
		1.0,
		1.0],
		"max":[1.0,
		1.0,
		1.0]
	},
	{
		"bufferView":3,
		"type":"SCALAR",
		"componentType":5123,
		"count":48384,
		"byteOffset":0,
		"min":[0],
		"max":[8382]
	},
	{
		"bufferView":4,
		"type":"VEC3",
		"componentType":5126,
		"count":8383,
		"byteOffset":0,
		"min":[-0.005355325061827898,
		-0.0053553273901343349,
		-0.005355336237698793],
		"max":[0.005355325061827898,
		0.0053553273901343349,
		0.005355336237698793]
	},
	{
		"bufferView":4,
		"type":"VEC3",
		"componentType":5126,
		"count":8383,
		"byteOffset":12,
		"min":[-1.0,
		-1.0,
		-1.0],
		"max":[1.0,
		0.9999999403953552,
		1.0]
	},
	{
		"bufferView":4,
		"type":"VEC2",
		"componentType":5126,
		"count":8383,
		"byteOffset":24,
		"min":[0.0,
		0.0],
		"max":[1.0,
		1.0]
	}],
	"bufferViews":[{
		"buffer":0,
		"byteOffset":0,
		"byteLength":48
	},
	{
		"buffer":0,
		"byteOffset":48,
		"byteLength":60
	},
	{
		"buffer":0,
		"byteOffset":108,
		"byteLength":48
	},
	{
		"buffer":1,
		"byteOffset":0,
		"byteLength":96768,
		"target":34963
	},
	{
		"buffer":1,
		"byteOffset":96768,
		"byteLength":268256,
		"byteStride":32,
		"target":34962
	}],
	"animations":[{
		"samplers":[{
			"input":0,
			"interpolation":"LINEAR",
			"output":1
		},
		{
			"input":2,
			"interpolation":"LINEAR",
			"output":3
		},
		{
			"input":4,
			"interpolation":"LINEAR",
			"output":5
		}],
		"channels":[{
			"sampler":0,
			"target":{
				"node":0,
				"path":"translation"
			}
		},
		{
			"sampler":1,
			"target":{
				"node":0,
				"path":"rotation"
			}
		},
		{
			"sampler":2,
			"target":{
				"node":0,
				"path":"scale"
			}
		}]
	}],
	"buffers":[{
		"uri":"data:application/octet-stream;base64,",
		"byteLength":156
	},
	{
		"uri":"data:application/octet-stream;base64,",
		"byteLength":365024
	}]
}