{
	"nodes":[{
		"name":"Earth",
		"translation":[-0.05275813490152359,
		0.0005396163905970752,
		-0.05310629680752754],
		"rotation":[0.6003690361976624,
		0.3338565230369568,
		0.38322770595550539,
		-0.617440938949585],
		"scale":[100.0,
		100.0,
		100.0],
		"mesh":0
	}],
	"asset":{
		"version":"2.0",
		"generator":"Created using the official Cinema 4D glTF Exporter 1.000x284978"
	},
	"images":[{
		"uri":"data:image/jpeg;base64,"
	}],
	"scenes":[{
		"nodes":[0]
	}],
	"materials":[{
		"pbrMetallicRoughness":{
			"baseColorTexture":{
				"index":0
			},
			"baseColorFactor":[0.800000011920929,
			0.800000011920929,
			0.800000011920929,
			1.0],
			"metallicFactor":0.0,
			"roughnessFactor":0.88
		},
		"emissiveFactor":[0.0,
		0.0,
		0.0],
		"alphaMode":"OPAQUE",
		"doubleSided":true,
		"name":"Earth"
	}],
	"meshes":[{
		"name":"Earth",
		"primitives":[{
			"attributes":{
				"POSITION":1,
				"NORMAL":2,
				"TEXCOORD_0":3
			},
			"indices":0,
			"material":0
		}]
	}],
	"accessors":[{
		"bufferView":0,
		"type":"SCALAR",
		"componentType":5123,
		"count":48384,
		"byteOffset":0,
		"min":[0],
		"max":[8382]
	},
	{
		"bufferView":1,
		"type":"VEC3",
		"componentType":5126,
		"count":8383,
		"byteOffset":0,
		"min":[-0.004242180846631527,
		-0.004242182243615389,
		-0.004242189694195986],
		"max":[0.004242180846631527,
		0.004242182243615389,
		0.004242189694195986]
	},
	{
		"bufferView":1,
		"type":"VEC3",
		"componentType":5126,
		"count":8383,
		"byteOffset":12,
		"min":[-1.0,
		-0.9999999403953552,
		-1.0],
		"max":[0.9999999403953552,
		1.0,
		0.9999999403953552]
	},
	{
		"bufferView":1,
		"type":"VEC2",
		"componentType":5126,
		"count":8383,
		"byteOffset":24,
		"min":[0.0,
		0.0],
		"max":[1.0,
		1.0]
	}],
	"bufferViews":[{
		"buffer":0,
		"byteOffset":0,
		"byteLength":96768,
		"target":34963
	},
	{
		"buffer":0,
		"byteOffset":96768,
		"byteLength":268256,
		"byteStride":32,
		"target":34962
	}],
	"buffers":[{
		"uri":"data:application/octet-stream;base64,",
		"byteLength":365024
	}],
	"samplers":[{
		"magFilter":9729,
		"minFilter":9729,
		"wrapS":10497,
		"wrapT":10497
	}],
	"textures":[{
		"sampler":0,
		"source":0
	}]
}