{
	"asset":{
		"version":"2.0",
		"generator":"Created using the official Cinema 4D glTF Exporter 1.000x284978"
	},
	"images":[{
		"uri":"data:image/jpeg;base64,"
	}],
	"scenes":[{
		"nodes":[0,
		1]
	}],
	"nodes":[{
		"name":"Camera",
		"translation":[-9.511209487915039,
		101.8133773803711,
		401.13323974609377],
		"rotation":[0.015321565791964531,
		-0.01661529205739498,
		0.00025463735801167786,
		0.9997445344924927],
		"scale":[1.0,
		1.0,
		1.0],
		"camera":0
	},
	{
		"name":"Earth",
		"translation":[-0.8417192101478577,
		64.02222442626953,
		-2.8172097206115724],
		"rotation":[-0.6420484185218811,
		0.2520250380039215,
		0.25475451350212099,
		0.677759051322937],
		"scale":[100.0,
		100.0,
		100.0],
		"mesh":0
	}],
	"meshes":[{
		"name":"Earth",
		"primitives":[{
			"attributes":{
				"POSITION":7,
				"NORMAL":8,
				"TEXCOORD_0":9
			},
			"indices":6,
			"material":0
		}]
	}],
	"cameras":[{
		"type":"perspective",
		"perspective":{
			"znear":0.009999999776482582,
			"zfar":10000000000.0,
			"aspectRatio":1.7777777910232545,
			"yfov":0.5483348965644836
		}
	}],
	"accessors":[{
		"bufferView":0,
		"type":"SCALAR",
		"componentType":5126,
		"count":3,
		"byteOffset":0,
		"min":[0.0],
		"max":[6.599999904632568]
	},
	{
		"bufferView":0,
		"type":"VEC3",
		"componentType":5126,
		"count":3,
		"byteOffset":12,
		"min":[-9.51828670501709,
		108.7599105834961,
		401.3460998535156],
		"max":[-9.51828670501709,
		108.7599105834961,
		401.3460998535156]
	},
	{
		"bufferView":1,
		"type":"SCALAR",
		"componentType":5126,
		"count":3,
		"byteOffset":0,
		"min":[0.0],
		"max":[6.599999904632568]
	},
	{
		"bufferView":1,
		"type":"VEC4",
		"componentType":5126,
		"count":3,
		"byteOffset":12,
		"min":[-0.015321565791964531,
		0.01661529205739498,
		-0.00025463735801167786,
		-0.9997445344924927],
		"max":[-0.015321565791964531,
		0.01661529205739498,
		-0.00025463735801167786,
		-0.9997445344924927]
	},
	{
		"bufferView":2,
		"type":"SCALAR",
		"componentType":5126,
		"count":3,
		"byteOffset":0,
		"min":[0.0],
		"max":[6.599999904632568]
	},
	{
		"bufferView":2,
		"type":"VEC3",
		"componentType":5126,
		"count":3,
		"byteOffset":12,
		"min":[1.0,
		1.0,
		1.0],
		"max":[1.0,
		1.0,
		1.0]
	},
	{
		"bufferView":3,
		"type":"SCALAR",
		"componentType":5123,
		"count":48384,
		"byteOffset":0,
		"min":[0],
		"max":[8382]
	},
	{
		"bufferView":4,
		"type":"VEC3",
		"componentType":5126,
		"count":8383,
		"byteOffset":0,
		"min":[-0.8976366519927979,
		-0.8976370692253113,
		-0.8976385593414307],
		"max":[0.8976366519927979,
		0.8976370692253113,
		0.8976385593414307]
	},
	{
		"bufferView":4,
		"type":"VEC3",
		"componentType":5126,
		"count":8383,
		"byteOffset":12,
		"min":[-1.0,
		-1.0,
		-1.0],
		"max":[1.0,
		1.0,
		1.0]
	},
	{
		"bufferView":4,
		"type":"VEC2",
		"componentType":5126,
		"count":8383,
		"byteOffset":24,
		"min":[0.0,
		0.0],
		"max":[1.0,
		1.0]
	},
	{
		"bufferView":5,
		"type":"SCALAR",
		"componentType":5126,
		"count":4,
		"byteOffset":0,
		"min":[0.0],
		"max":[6.599999904632568]
	},
	{
		"bufferView":5,
		"type":"VEC3",
		"componentType":5126,
		"count":4,
		"byteOffset":16,
		"min":[6.093991985028122e-38,
		122.01722717285156,
		7.471399800923484e-15],
		"max":[6.093991985028122e-38,
		122.01722717285156,
		7.471399800923484e-15]
	},
	{
		"bufferView":6,
		"type":"SCALAR",
		"componentType":5126,
		"count":4,
		"byteOffset":0,
		"min":[0.0],
		"max":[6.599999904632568]
	},
	{
		"bufferView":6,
		"type":"VEC4",
		"componentType":5126,
		"count":4,
		"byteOffset":16,
		"min":[0.6420484185218811,
		-0.2520250380039215,
		-0.25475451350212099,
		-0.6790264248847961],
		"max":[0.664662778377533,
		-0.236186221241951,
		-0.2033778727054596,
		-0.677759051322937]
	},
	{
		"bufferView":7,
		"type":"SCALAR",
		"componentType":5126,
		"count":4,
		"byteOffset":0,
		"min":[0.0],
		"max":[6.599999904632568]
	},
	{
		"bufferView":7,
		"type":"VEC3",
		"componentType":5126,
		"count":4,
		"byteOffset":16,
		"min":[-100.0,
		100.0,
		100.0],
		"max":[100.0,
		100.0,
		100.0]
	}],
	"bufferViews":[{
		"buffer":0,
		"byteOffset":0,
		"byteLength":48
	},
	{
		"buffer":0,
		"byteOffset":48,
		"byteLength":60
	},
	{
		"buffer":0,
		"byteOffset":108,
		"byteLength":48
	},
	{
		"buffer":1,
		"byteOffset":0,
		"byteLength":96768,
		"target":34963
	},
	{
		"buffer":1,
		"byteOffset":96768,
		"byteLength":268256,
		"target":34962,
		"byteStride":32
	},
	{
		"buffer":2,
		"byteOffset":0,
		"byteLength":64
	},
	{
		"buffer":2,
		"byteOffset":64,
		"byteLength":80
	},
	{
		"buffer":2,
		"byteOffset":144,
		"byteLength":64
	}],
	"buffers":[{
		"uri":"data:application/octet-stream;base64,",
		"byteLength":156
	},
	{
		"uri":"data:application/octet-stream;base64,",
		"byteLength":365024
	},
	{
		"uri":"data:application/octet-stream;base64,",
		"byteLength":208
	}],
	"samplers":[{
		"magFilter":9729,
		"minFilter":9729,
		"wrapS":10497,
		"wrapT":10497
	}],
	"textures":[{
		"sampler":0,
		"source":0
	}],
	"materials":[{
		"pbrMetallicRoughness":{
			"baseColorTexture":{
				"index":0
			},
			"baseColorFactor":[0.800000011920929,
			0.800000011920929,
			0.800000011920929,
			1.0],
			"metallicFactor":0.0,
			"roughnessFactor":0.61
		},
		"emissiveFactor":[0.0,
		0.0,
		0.0],
		"alphaMode":"OPAQUE",
		"doubleSided":true,
		"name":"Earth.1"
	}],
	"animations":[{
		"samplers":[{
			"input":0,
			"interpolation":"LINEAR",
			"output":1
		},
		{
			"input":2,
			"interpolation":"LINEAR",
			"output":3
		},
		{
			"input":4,
			"interpolation":"LINEAR",
			"output":5
		},
		{
			"input":10,
			"interpolation":"LINEAR",
			"output":11
		},
		{
			"input":12,
			"interpolation":"LINEAR",
			"output":13
		},
		{
			"input":14,
			"interpolation":"LINEAR",
			"output":15
		}],
		"channels":[{
			"sampler":0,
			"target":{
				"node":0,
				"path":"translation"
			}
		},
		{
			"sampler":1,
			"target":{
				"node":0,
				"path":"rotation"
			}
		},
		{
			"sampler":2,
			"target":{
				"node":0,
				"path":"scale"
			}
		},
		{
			"sampler":3,
			"target":{
				"node":1,
				"path":"translation"
			}
		},
		{
			"sampler":4,
			"target":{
				"node":1,
				"path":"rotation"
			}
		},
		{
			"sampler":5,
			"target":{
				"node":1,
				"path":"scale"
			}
		}]
	}]
}