{
	"asset":{
		"version":"2.0",
		"generator":"Created using the official Cinema 4D glTF Exporter 1.000x284978"
	},
	"scenes":[{
		"nodes":[0,
		1]
	}],
	"meshes":[{
		"name":"Earth",
		"primitives":[{
			"attributes":{
				"POSITION":7,
				"NORMAL":8,
				"TEXCOORD_0":9
			},
			"indices":6,
			"material":0
		}]
	}],
	"nodes":[{
		"name":"Camera",
		"translation":[-0.095182865858078,
		1.0875990390777588,
		4.013461112976074],
		"scale":[1.0,
		1.0,
		1.0],
		"rotation":[0.015321565791964531,
		-0.01661529205739498,
		0.00025463735801167786,
		0.9997445344924927],
		"camera":0
	},
	{
		"name":"Earth",
		"translation":[-0.016470709815621377,
		-0.0016963165253400803,
		-0.05853840708732605],
		"scale":[100.0,
		100.0,
		100.0],
		"rotation":[-0.37772136926651,
		-0.604664146900177,
		-0.5588130950927734,
		0.42359858751296999],
		"mesh":0
	}],
	"cameras":[{
		"type":"perspective",
		"perspective":{
			"znear":0.009999999776482582,
			"zfar":10000000000.0,
			"aspectRatio":1.7777777910232545,
			"yfov":0.5483348965644836
		}
	}],
	"accessors":[{
		"bufferView":0,
		"type":"SCALAR",
		"max":[6.599999904632568],
		"componentType":5126,
		"count":3,
		"byteOffset":0,
		"min":[0.0]
	},
	{
		"bufferView":0,
		"type":"VEC3",
		"max":[-0.095182865858078,
		1.0875990390777588,
		4.013461112976074],
		"componentType":5126,
		"count":3,
		"byteOffset":12,
		"min":[-0.095182865858078,
		1.0875990390777588,
		4.013461112976074]
	},
	{
		"bufferView":1,
		"type":"SCALAR",
		"max":[6.599999904632568],
		"componentType":5126,
		"count":3,
		"byteOffset":0,
		"min":[0.0]
	},
	{
		"bufferView":1,
		"type":"VEC4",
		"max":[-0.015321565791964531,
		0.01661529205739498,
		-0.00025463735801167786,
		-0.9997445344924927],
		"componentType":5126,
		"count":3,
		"byteOffset":12,
		"min":[-0.015321565791964531,
		0.01661529205739498,
		-0.00025463735801167786,
		-0.9997445344924927]
	},
	{
		"bufferView":2,
		"type":"SCALAR",
		"max":[6.599999904632568],
		"componentType":5126,
		"count":3,
		"byteOffset":0,
		"min":[0.0]
	},
	{
		"bufferView":2,
		"type":"VEC3",
		"max":[1.0,
		1.0,
		1.0],
		"componentType":5126,
		"count":3,
		"byteOffset":12,
		"min":[1.0,
		1.0,
		1.0]
	},
	{
		"bufferView":3,
		"type":"SCALAR",
		"max":[8382],
		"componentType":5123,
		"count":48384,
		"byteOffset":0,
		"min":[0]
	},
	{
		"bufferView":4,
		"type":"VEC3",
		"max":[0.004056486766785383,
		0.0040564886294305328,
		0.004056495148688555],
		"componentType":5126,
		"count":8383,
		"byteOffset":0,
		"min":[-0.004056486766785383,
		-0.0040564886294305328,
		-0.004056495148688555]
	},
	{
		"bufferView":4,
		"type":"VEC3",
		"max":[1.0,
		1.0,
		1.0],
		"componentType":5126,
		"count":8383,
		"byteOffset":12,
		"min":[-1.0,
		-1.0,
		-0.9999999403953552]
	},
	{
		"bufferView":4,
		"type":"VEC2",
		"max":[1.0,
		1.0],
		"componentType":5126,
		"count":8383,
		"byteOffset":24,
		"min":[0.0,
		0.0]
	}],
	"bufferViews":[{
		"buffer":0,
		"byteOffset":0,
		"byteLength":48
	},
	{
		"buffer":0,
		"byteOffset":48,
		"byteLength":60
	},
	{
		"buffer":0,
		"byteOffset":108,
		"byteLength":48
	},
	{
		"buffer":1,
		"byteOffset":0,
		"target":34963,
		"byteLength":96768
	},
	{
		"buffer":1,
		"byteOffset":96768,
		"target":34962,
		"byteLength":268256,
		"byteStride":32
	}],
	"animations":[{
		"samplers":[{
			"input":0,
			"interpolation":"LINEAR",
			"output":1
		},
		{
			"input":2,
			"interpolation":"LINEAR",
			"output":3
		},
		{
			"input":4,
			"interpolation":"LINEAR",
			"output":5
		}],
		"channels":[{
			"sampler":0,
			"target":{
				"node":0,
				"path":"translation"
			}
		},
		{
			"sampler":1,
			"target":{
				"node":0,
				"path":"rotation"
			}
		},
		{
			"sampler":2,
			"target":{
				"node":0,
				"path":"scale"
			}
		}]
	}],
	"buffers":[{
		"uri":"data:application/octet-stream;base64,",
		"byteLength":156
	},
	{
		"uri":"data:application/octet-stream;base64,",
		"byteLength":365024
	}],
	"images":[{
		"uri":"data:image/jpeg;base64,"
	}],
	"samplers":[{
		"magFilter":9729,
		"minFilter":9729,
		"wrapS":10497,
		"wrapT":10497
	}],
	"textures":[{
		"sampler":0,
		"source":0
	}],
	"materials":[{
		"pbrMetallicRoughness":{
			"baseColorTexture":{
				"index":0
			},
			"baseColorFactor":[1.0,
			1.0,
			1.0,
			1.0],
			"metallicFactor":0.0,
			"roughnessFactor":0.93
		},
		"emissiveFactor":[0.0,
		0.0,
		0.0],
		"alphaMode":"OPAQUE",
		"doubleSided":true,
		"name":"Earth.1"
	}]
}