{
	"scenes":[{
		"nodes":[0]
	}],
	"asset":{
		"version":"2.0",
		"generator":"Created using the official Cinema 4D glTF Exporter 1.000x284978"
	},
	"nodes":[{
		"name":"pockeball plus",
		"translation":[-0.10343386977910996,
		0.0035401189234107734,
		-0.04510437324643135],
		"rotation":[2.7801065893839906e-9,
		-0.3731395900249481,
		-6.912463934583002e-9,
		0.9277752041816711],
		"scale":[1.0,
		1.0,
		1.0],
		"children":[1,
		6]
	},
	{
		"name":"Sphere.004",
		"translation":[0.0,
		-0.052430469542741778,
		7.576202392578125],
		"rotation":[3.774894707930798e-8,
		-1.1102228922762585e-16,
		-4.190974625849975e-24,
		-1.0],
		"scale":[104.93657684326172,
		104.93657684326172,
		104.93657684326172],
		"children":[2,
		3]
	},
	{
		"name":"Sphere.004-Mat.1",
		"mesh":0
	},
	{
		"name":"Sphere.005",
		"translation":[-3.2228631672719155e-15,
		-7.283522265912773e-19,
		3.2730493929407e-16],
		"rotation":[3.9968028886505639e-15,
		0.0,
		0.0,
		-1.0],
		"scale":[0.9529565572738648,
		0.9529565572738648,
		0.9529565572738648],
		"children":[4,
		5]
	},
	{
		"name":"Sphere.005-Material.005",
		"mesh":1
	},
	{
		"name":"Sphere.005-Material.001",
		"mesh":2
	},
	{
		"name":"Cylinder.001",
		"translation":[0.0,
		0.052430469542741778,
		-7.576202392578125],
		"rotation":[0.5000001192092896,
		0.5,
		-0.49999988079071047,
		-0.4999999701976776],
		"scale":[9.381757736206055,
		9.381757736206055,
		19.039567947387697],
		"mesh":3,
		"children":[7,
		10]
	},
	{
		"name":"Sphere.006",
		"translation":[-0.011177108623087407,
		-1.6150922775268555,
		8.67359112186267e-15],
		"rotation":[-0.5000000596046448,
		-0.4999999403953552,
		0.4999999403953552,
		-0.5000000596046448],
		"scale":[5.511499881744385,
		11.185172080993653,
		11.185172080993653],
		"children":[8,
		9]
	},
	{
		"name":"Sphere.006-Mat.1",
		"mesh":4
	},
	{
		"name":"Sphere.006-Mat",
		"mesh":5
	},
	{
		"name":"Sphere.007",
		"translation":[-0.011177108623087407,
		-1.6150922775268555,
		3.687737083339941e-15],
		"rotation":[-0.5000000596046448,
		-0.49999991059303286,
		0.49999991059303286,
		-0.5000000596046448],
		"scale":[5.252220153808594,
		10.65898323059082,
		10.65898323059082],
		"children":[11,
		12,
		13,
		14]
	},
	{
		"name":"Sphere.007-Material.005",
		"mesh":6
	},
	{
		"name":"Sphere.007-Material.005",
		"mesh":7
	},
	{
		"name":"Sphere.007-Material.002",
		"mesh":8
	},
	{
		"name":"Sphere.007-Material.001",
		"mesh":9
	}],
	"meshes":[{
		"primitives":[{
			"attributes":{
				"POSITION":1,
				"NORMAL":2,
				"TEXCOORD_0":3
			},
			"indices":0,
			"material":0
		}],
		"name":"Sphere.004-Mat.1"
	},
	{
		"primitives":[{
			"attributes":{
				"POSITION":5,
				"NORMAL":6,
				"TEXCOORD_0":7
			},
			"indices":4,
			"material":1
		}],
		"name":"Sphere.005-Material.005"
	},
	{
		"primitives":[{
			"attributes":{
				"POSITION":9,
				"NORMAL":10,
				"TEXCOORD_0":11
			},
			"indices":8,
			"material":2
		}],
		"name":"Sphere.005-Material.001"
	},
	{
		"primitives":[{
			"attributes":{
				"POSITION":13,
				"NORMAL":14,
				"TEXCOORD_0":15
			},
			"indices":12,
			"material":2
		}],
		"name":"Cylinder.001"
	},
	{
		"primitives":[{
			"attributes":{
				"POSITION":17,
				"NORMAL":18,
				"TEXCOORD_0":19
			},
			"indices":16,
			"material":0
		}],
		"name":"Sphere.006-Mat.1"
	},
	{
		"primitives":[{
			"attributes":{
				"POSITION":21,
				"NORMAL":22,
				"TEXCOORD_0":23
			},
			"indices":20,
			"material":3
		}],
		"name":"Sphere.006-Mat"
	},
	{
		"primitives":[{
			"attributes":{
				"POSITION":25,
				"NORMAL":26,
				"TEXCOORD_0":27
			},
			"indices":24,
			"material":1
		}],
		"name":"Sphere.007-Material.005"
	},
	{
		"primitives":[{
			"attributes":{
				"POSITION":29,
				"NORMAL":30,
				"TEXCOORD_0":31
			},
			"indices":28,
			"material":1
		}],
		"name":"Sphere.007-Material.005"
	},
	{
		"primitives":[{
			"attributes":{
				"POSITION":33,
				"NORMAL":34,
				"TEXCOORD_0":35
			},
			"indices":32,
			"material":4
		}],
		"name":"Sphere.007-Material.002"
	},
	{
		"primitives":[{
			"attributes":{
				"POSITION":37,
				"NORMAL":38,
				"TEXCOORD_0":39
			},
			"indices":36,
			"material":2
		}],
		"name":"Sphere.007-Material.001"
	}],
	"accessors":[{
		"type":"SCALAR",
		"bufferView":0,
		"componentType":5123,
		"max":[899],
		"count":3780,
		"byteOffset":0,
		"min":[0]
	},
	{
		"type":"VEC3",
		"bufferView":1,
		"componentType":5126,
		"max":[0.14691758155822755,
		-0.00858406163752079,
		0.13682995736598969],
		"count":900,
		"byteOffset":0,
		"min":[-0.14691747725009919,
		-0.14810359477996827,
		-0.1536082774400711]
	},
	{
		"type":"VEC3",
		"bufferView":1,
		"componentType":5126,
		"max":[1.0,
		1.0,
		1.0],
		"count":900,
		"byteOffset":12,
		"min":[-1.0,
		-1.0,
		-1.0]
	},
	{
		"type":"VEC2",
		"bufferView":1,
		"componentType":5126,
		"max":[0.6306593418121338,
		-0.3643646240234375],
		"count":900,
		"byteOffset":24,
		"min":[0.3487164378166199,
		-0.6271422505378723]
	},
	{
		"type":"SCALAR",
		"bufferView":2,
		"componentType":5123,
		"max":[2049],
		"count":4860,
		"byteOffset":0,
		"min":[0]
	},
	{
		"type":"VEC3",
		"bufferView":3,
		"componentType":5126,
		"max":[0.11549003422260285,
		-0.009512796066701413,
		0.09820187091827393],
		"count":2050,
		"byteOffset":0,
		"min":[-0.11548996716737747,
		-0.11751975864171982,
		-0.10945955663919449]
	},
	{
		"type":"VEC3",
		"bufferView":3,
		"componentType":5126,
		"max":[0.9860938191413879,
		0.987281322479248,
		0.960062563419342],
		"count":2050,
		"byteOffset":12,
		"min":[-0.9859687685966492,
		0.057593751698732379,
		-0.8562188148498535]
	},
	{
		"type":"VEC2",
		"bufferView":3,
		"componentType":5126,
		"max":[0.9947077035903931,
		0.9945428371429443],
		"count":2050,
		"byteOffset":24,
		"min":[0.002136412775143981,
		0.28091585636138918]
	},
	{
		"type":"SCALAR",
		"bufferView":4,
		"componentType":5123,
		"max":[4244],
		"count":12576,
		"byteOffset":0,
		"min":[0]
	},
	{
		"type":"VEC3",
		"bufferView":5,
		"componentType":5126,
		"max":[0.14810363948345185,
		0.0029034102335572244,
		0.13682995736598969],
		"count":4245,
		"byteOffset":0,
		"min":[-0.14810355007648469,
		-0.14810359477996827,
		-0.14810368418693543]
	},
	{
		"type":"VEC3",
		"bufferView":5,
		"componentType":5126,
		"max":[0.9981250762939453,
		0.9999688267707825,
		0.9981250762939453],
		"count":4245,
		"byteOffset":12,
		"min":[-0.9985625743865967,
		-0.9999688267707825,
		-0.9993438124656677]
	},
	{
		"type":"VEC2",
		"bufferView":5,
		"componentType":5126,
		"max":[0.9974813461303711,
		-0.002518773078918457],
		"count":4245,
		"byteOffset":24,
		"min":[0.002518676919862628,
		-0.719143271446228]
	},
	{
		"type":"SCALAR",
		"bufferView":6,
		"componentType":5123,
		"max":[1015],
		"count":3060,
		"byteOffset":0,
		"min":[0]
	},
	{
		"type":"VEC3",
		"bufferView":7,
		"componentType":5126,
		"max":[0.17005226016044618,
		0.17005226016044618,
		0.20107288658618928],
		"count":1016,
		"byteOffset":0,
		"min":[-0.17005226016044618,
		-0.17005226016044618,
		-0.20107288658618928]
	},
	{
		"type":"VEC3",
		"bufferView":7,
		"componentType":5126,
		"max":[0.9994615912437439,
		0.9994615912437439,
		1.0],
		"count":1016,
		"byteOffset":12,
		"min":[-0.9994615912437439,
		-0.9994615912437439,
		-1.0]
	},
	{
		"type":"VEC2",
		"bufferView":7,
		"componentType":5126,
		"max":[0.9925462007522583,
		-0.004148125648498535],
		"count":1016,
		"byteOffset":24,
		"min":[0.0041481200605630878,
		-0.9958518147468567]
	},
	{
		"type":"SCALAR",
		"bufferView":8,
		"componentType":5123,
		"max":[331],
		"count":1272,
		"byteOffset":0,
		"min":[0]
	},
	{
		"type":"VEC3",
		"bufferView":9,
		"componentType":5126,
		"max":[0.14478619396686555,
		0.10963080823421478,
		0.12957468628883363],
		"count":332,
		"byteOffset":0,
		"min":[-0.1447860598564148,
		0.031487949192523959,
		-0.10963491350412369]
	},
	{
		"type":"VEC3",
		"bufferView":9,
		"componentType":5126,
		"max":[0.9737188220024109,
		0.9953125715255737,
		0.9954375624656677],
		"count":332,
		"byteOffset":12,
		"min":[-0.9737188220024109,
		-0.9054688215255737,
		-0.9950000643730164]
	},
	{
		"type":"VEC2",
		"bufferView":9,
		"componentType":5126,
		"max":[0.6199369430541992,
		-0.403445839881897],
		"count":332,
		"byteOffset":24,
		"min":[0.42136383056640627,
		-0.5687922239303589]
	},
	{
		"type":"SCALAR",
		"bufferView":10,
		"componentType":5123,
		"max":[883],
		"count":3564,
		"byteOffset":0,
		"min":[0]
	},
	{
		"type":"VEC3",
		"bufferView":11,
		"componentType":5126,
		"max":[0.14691758155822755,
		0.14810368418693543,
		0.13682995736598969],
		"count":884,
		"byteOffset":0,
		"min":[-0.14691747725009919,
		0.008584062568843365,
		-0.15360794961452485]
	},
	{
		"type":"VEC3",
		"bufferView":11,
		"componentType":5126,
		"max":[1.0,
		1.0,
		1.0],
		"count":884,
		"byteOffset":12,
		"min":[-1.0,
		-1.0,
		-1.0]
	},
	{
		"type":"VEC2",
		"bufferView":11,
		"componentType":5126,
		"max":[0.6272567510604858,
		-0.39351487159729006],
		"count":884,
		"byteOffset":24,
		"min":[0.3487164378166199,
		-0.6846501231193543]
	},
	{
		"type":"SCALAR",
		"bufferView":12,
		"componentType":5123,
		"max":[63],
		"count":192,
		"byteOffset":0,
		"min":[0]
	},
	{
		"type":"VEC3",
		"bufferView":13,
		"componentType":5126,
		"max":[0.024473024532198907,
		0.024473000317811967,
		0.1559186428785324],
		"count":64,
		"byteOffset":0,
		"min":[-0.024473007768392564,
		-0.02447301149368286,
		0.15591606497764588]
	},
	{
		"type":"VEC3",
		"bufferView":13,
		"componentType":5126,
		"max":[0.0019375000847503543,
		0.0020000000949949028,
		0.9999688267707825],
		"count":64,
		"byteOffset":12,
		"min":[-0.0019375000847503543,
		-0.0020000000949949028,
		0.9999688267707825]
	},
	{
		"type":"VEC2",
		"bufferView":13,
		"componentType":5126,
		"max":[0.5851783752441406,
		0.5766886472702026],
		"count":64,
		"byteOffset":24,
		"min":[0.4444376826286316,
		0.4359479546546936]
	},
	{
		"type":"SCALAR",
		"bufferView":14,
		"componentType":5123,
		"max":[2191],
		"count":5307,
		"byteOffset":0,
		"min":[0]
	},
	{
		"type":"VEC3",
		"bufferView":15,
		"componentType":5126,
		"max":[0.1140265166759491,
		0.11982312798500061,
		0.1100635752081871],
		"count":2192,
		"byteOffset":0,
		"min":[-0.11399614065885544,
		-0.0010462331119924784,
		-0.1099194660782814]
	},
	{
		"type":"VEC3",
		"bufferView":15,
		"componentType":5126,
		"max":[0.982843816280365,
		0.8925625681877136,
		0.9745938181877136],
		"count":2192,
		"byteOffset":12,
		"min":[-0.9865313172340393,
		-0.9994375705718994,
		-0.9732813239097595]
	},
	{
		"type":"VEC2",
		"bufferView":15,
		"componentType":5126,
		"max":[0.9904558062553406,
		0.997699499130249],
		"count":2192,
		"byteOffset":24,
		"min":[0.002136421389877796,
		0.43366289138793948]
	},
	{
		"type":"SCALAR",
		"bufferView":16,
		"componentType":5123,
		"max":[833],
		"count":2688,
		"byteOffset":0,
		"min":[0]
	},
	{
		"type":"VEC3",
		"bufferView":17,
		"componentType":5126,
		"max":[0.04548634961247444,
		0.045486342161893848,
		0.15592020750045777],
		"count":834,
		"byteOffset":0,
		"min":[-0.04548634588718414,
		-0.045486368238925937,
		0.12624868750572205]
	},
	{
		"type":"VEC3",
		"bufferView":17,
		"componentType":5126,
		"max":[1.0,
		1.0,
		1.0],
		"count":834,
		"byteOffset":12,
		"min":[-0.9999688267707825,
		-0.9999688267707825,
		-1.0]
	},
	{
		"type":"VEC2",
		"bufferView":17,
		"componentType":5126,
		"max":[0.5978893041610718,
		-0.4106004238128662],
		"count":834,
		"byteOffset":24,
		"min":[0.43172669410705569,
		-0.5767630338668823]
	},
	{
		"type":"SCALAR",
		"bufferView":18,
		"componentType":5123,
		"max":[5028],
		"count":13851,
		"byteOffset":0,
		"min":[0]
	},
	{
		"type":"VEC3",
		"bufferView":19,
		"componentType":5126,
		"max":[0.14805671572685243,
		0.14810368418693543,
		0.14525792002677918],
		"count":5029,
		"byteOffset":0,
		"min":[-0.14805661141872407,
		-0.05621853470802307,
		-0.1480347365140915]
	},
	{
		"type":"VEC3",
		"bufferView":19,
		"componentType":5126,
		"max":[0.9994375705718994,
		0.9999688267707825,
		0.9982187747955322],
		"count":5029,
		"byteOffset":12,
		"min":[-0.9995312690734863,
		-0.9993438124656677,
		-0.9980313181877136]
	},
	{
		"type":"VEC2",
		"bufferView":19,
		"componentType":5126,
		"max":[0.990412712097168,
		-0.002518773078918457],
		"count":5029,
		"byteOffset":24,
		"min":[0.0025187041610479357,
		-0.6073209643363953]
	}],
	"bufferViews":[{
		"buffer":0,
		"byteOffset":0,
		"byteLength":7560,
		"target":34963
	},
	{
		"buffer":0,
		"byteOffset":7560,
		"byteLength":28800,
		"target":34962,
		"byteStride":32
	},
	{
		"buffer":1,
		"byteOffset":0,
		"byteLength":9720,
		"target":34963
	},
	{
		"buffer":1,
		"byteOffset":9720,
		"byteLength":65600,
		"target":34962,
		"byteStride":32
	},
	{
		"buffer":2,
		"byteOffset":0,
		"byteLength":25152,
		"target":34963
	},
	{
		"buffer":2,
		"byteOffset":25152,
		"byteLength":135840,
		"target":34962,
		"byteStride":32
	},
	{
		"buffer":3,
		"byteOffset":0,
		"byteLength":6120,
		"target":34963
	},
	{
		"buffer":3,
		"byteOffset":6120,
		"byteLength":32512,
		"target":34962,
		"byteStride":32
	},
	{
		"buffer":4,
		"byteOffset":0,
		"byteLength":2544,
		"target":34963
	},
	{
		"buffer":4,
		"byteOffset":2544,
		"byteLength":10624,
		"target":34962,
		"byteStride":32
	},
	{
		"buffer":5,
		"byteOffset":0,
		"byteLength":7128,
		"target":34963
	},
	{
		"buffer":5,
		"byteOffset":7128,
		"byteLength":28288,
		"target":34962,
		"byteStride":32
	},
	{
		"buffer":6,
		"byteOffset":0,
		"byteLength":384,
		"target":34963
	},
	{
		"buffer":6,
		"byteOffset":384,
		"byteLength":2048,
		"target":34962,
		"byteStride":32
	},
	{
		"buffer":7,
		"byteOffset":0,
		"byteLength":10614,
		"target":34963
	},
	{
		"buffer":7,
		"byteOffset":10616,
		"byteLength":70144,
		"target":34962,
		"byteStride":32
	},
	{
		"buffer":8,
		"byteOffset":0,
		"byteLength":5376,
		"target":34963
	},
	{
		"buffer":8,
		"byteOffset":5376,
		"byteLength":26688,
		"target":34962,
		"byteStride":32
	},
	{
		"buffer":9,
		"byteOffset":0,
		"byteLength":27702,
		"target":34963
	},
	{
		"buffer":9,
		"byteOffset":27704,
		"byteLength":160928,
		"target":34962,
		"byteStride":32
	}],
	"buffers":[{
		"uri":"data:application/octet-stream;base64,",
		"byteLength":36360
	},
	{
		"uri":"data:application/octet-stream;base64,",
		"byteLength":75320
	},
	{
		"uri":"data:application/octet-stream;base64,",
		"byteLength":160992
	},
	{
		"uri":"data:application/octet-stream;base64,",
		"byteLength":38632
	},
	{
		"uri":"data:application/octet-stream;base64,",
		"byteLength":13168
	},
	{
		"uri":"data:application/octet-stream;base64,",
		"byteLength":35416
	},
	{
		"uri":"data:application/octet-stream;base64,",
		"byteLength":2432
	},
	{
		"uri":"data:application/octet-stream;base64,",
		"byteLength":80760
	},
	{
		"uri":"data:application/octet-stream;base64,",
		"byteLength":32064
	},
	{
		"uri":"data:application/octet-stream;base64,",
		"byteLength":188632
	}],
	"materials":[{
		"pbrMetallicRoughness":{
			"baseColorFactor":[0.0075,
			0.0075,
			0.0075,
			1.0],
			"metallicFactor":1.0,
			"roughnessFactor":0.0
		},
		"emissiveFactor":[0.0,
		0.0,
		0.0],
		"alphaMode":"OPAQUE",
		"doubleSided":true,
		"name":"Mat.1"
	},
	{
		"pbrMetallicRoughness":{
			"baseColorFactor":[0.800000011920929,
			0.800000011920929,
			0.800000011920929,
			1.0],
			"metallicFactor":0.0,
			"roughnessFactor":0.48300750272214629
		},
		"emissiveFactor":[0.0,
		0.0,
		0.0],
		"alphaMode":"OPAQUE",
		"doubleSided":true,
		"name":"Material.005"
	},
	{
		"pbrMetallicRoughness":{
			"baseColorFactor":[0.0056045823730528358,
			0.0056045823730528358,
			0.0056045823730528358,
			1.0],
			"metallicFactor":1.0,
			"roughnessFactor":0.0
		},
		"emissiveFactor":[0.0,
		0.0,
		0.0],
		"alphaMode":"OPAQUE",
		"doubleSided":true,
		"name":"Material.001"
	},
	{
		"pbrMetallicRoughness":{
			"baseColorFactor":[0.03006969392299652,
			0.02985590137541294,
			0.02985590137541294,
			1.0],
			"metallicFactor":1.0,
			"roughnessFactor":0.0
		},
		"emissiveFactor":[0.0,
		0.0,
		0.0],
		"alphaMode":"OPAQUE",
		"doubleSided":true,
		"name":"Mat"
	},
	{
		"pbrMetallicRoughness":{
			"baseColorFactor":[0.8275562524795532,
			0.8275562524795532,
			0.8275562524795532,
			1.0],
			"metallicFactor":0.0,
			"roughnessFactor":0.5441014322330827
		},
		"emissiveFactor":[0.0,
		0.0,
		0.0],
		"alphaMode":"OPAQUE",
		"doubleSided":true,
		"name":"Material.002"
	}]
}