{
	"animations":[{
		"samplers":[{
			"input":4,
			"interpolation":"LINEAR",
			"output":5
		},
		{
			"input":6,
			"interpolation":"LINEAR",
			"output":7
		},
		{
			"input":8,
			"interpolation":"LINEAR",
			"output":9
		}],
		"channels":[{
			"sampler":0,
			"target":{
				"node":0,
				"path":"translation"
			}
		},
		{
			"sampler":1,
			"target":{
				"node":0,
				"path":"rotation"
			}
		},
		{
			"sampler":2,
			"target":{
				"node":0,
				"path":"scale"
			}
		}]
	}],
	"nodes":[{
		"name":"sputnik",
		"translation":[-0.7914942502975464,
		2.8331379890441896,
		4.75180196762085],
		"rotation":[-0.3308933973312378,
		0.6249076724052429,
		0.6249076724052429,
		0.3308933973312378],
		"scale":[100.0,
		100.0,
		100.0],
		"mesh":0
	}],
	"asset":{
		"version":"2.0",
		"generator":"Created using the official Cinema 4D glTF Exporter 1.000x284978"
	},
	"scenes":[{
		"nodes":[0]
	}],
	"meshes":[{
		"primitives":[{
			"attributes":{
				"POSITION":1,
				"NORMAL":2,
				"TEXCOORD_0":3
			},
			"indices":0,
			"material":0
		}],
		"name":"sputnik"
	}],
	"accessors":[{
		"bufferView":0,
		"type":"SCALAR",
		"componentType":5123,
		"count":218064,
		"byteOffset":0,
		"min":[0],
		"max":[54577]
	},
	{
		"bufferView":1,
		"type":"VEC3",
		"componentType":5126,
		"count":54578,
		"byteOffset":0,
		"min":[-0.006692895665764809,
		-0.007019714452326298,
		-0.015133298933506012],
		"max":[0.007190684322267771,
		0.007022723089903593,
		0.002444060053676367]
	},
	{
		"bufferView":1,
		"type":"VEC3",
		"componentType":5126,
		"count":54578,
		"byteOffset":12,
		"min":[-0.9999999403953552,
		-0.999961256980896,
		-1.0],
		"max":[0.9999460577964783,
		0.9999613165855408,
		1.0]
	},
	{
		"bufferView":1,
		"type":"VEC2",
		"componentType":5126,
		"count":54578,
		"byteOffset":24,
		"min":[2.9852890293113889e-7,
		4.76837158203125e-7],
		"max":[1.2500008344650269,
		0.991569995880127]
	},
	{
		"bufferView":2,
		"type":"SCALAR",
		"componentType":5126,
		"count":5,
		"byteOffset":0,
		"min":[0.0],
		"max":[6.599999904632568]
	},
	{
		"bufferView":2,
		"type":"VEC3",
		"componentType":5126,
		"count":5,
		"byteOffset":20,
		"min":[-0.7914942502975464,
		2.8331379890441896,
		4.75180196762085],
		"max":[-0.7914942502975464,
		2.8331379890441896,
		4.75180196762085]
	},
	{
		"bufferView":3,
		"type":"SCALAR",
		"componentType":5126,
		"count":5,
		"byteOffset":0,
		"min":[0.0],
		"max":[6.599999904632568]
	},
	{
		"bufferView":3,
		"type":"VEC4",
		"componentType":5126,
		"count":5,
		"byteOffset":20,
		"min":[-0.4655678868293762,
		-0.65381920337677,
		-0.65381920337677,
		-0.3308933973312378],
		"max":[0.3308933973312378,
		-0.5322090983390808,
		-0.5322090983390808,
		0.4655678868293762]
	},
	{
		"bufferView":4,
		"type":"SCALAR",
		"componentType":5126,
		"count":5,
		"byteOffset":0,
		"min":[0.0],
		"max":[6.599999904632568]
	},
	{
		"bufferView":4,
		"type":"VEC3",
		"componentType":5126,
		"count":5,
		"byteOffset":20,
		"min":[100.0,
		100.0,
		100.0],
		"max":[100.0,
		100.0,
		100.0]
	}],
	"bufferViews":[{
		"buffer":0,
		"byteOffset":0,
		"byteLength":436128,
		"target":34963
	},
	{
		"buffer":0,
		"byteOffset":436128,
		"byteLength":1746496,
		"target":34962,
		"byteStride":32
	},
	{
		"buffer":1,
		"byteOffset":0,
		"byteLength":80
	},
	{
		"buffer":1,
		"byteOffset":80,
		"byteLength":100
	},
	{
		"buffer":1,
		"byteOffset":180,
		"byteLength":80
	}],
	"buffers":[{
		"uri":"data:application/octet-stream;base64,",
		"byteLength":2182624
	},
	{
		"uri":"data:application/octet-stream;base64,",
		"byteLength":260
	}],
	"materials":[{
		"pbrMetallicRoughness":{
			"baseColorFactor":[0.004,
			0.004,
			0.004,
			1.0],
			"metallicFactor":1.0,
			"roughnessFactor":0.0
		},
		"emissiveFactor":[0.0,
		0.0,
		0.0],
		"alphaMode":"OPAQUE",
		"doubleSided":true,
		"name":"sombre"
	}]
}