<svg width="36" height="38" viewBox="0 0 36 38" fill="none" xmlns="http://www.w3.org/2000/svg">
<path fill-rule="evenodd" clip-rule="evenodd" d="M17.9091 0C26.9066 0 34.3616 6.60417 35.6912 15.2295H24.7626C23.7496 12.6532 21.2396 10.8296 18.3037 10.8296C15.3679 10.8296 12.8579 12.6532 11.8448 15.2295H0.126953C1.4565 6.60417 8.91154 0 17.9091 0Z" fill="white"/>
<path fill-rule="evenodd" clip-rule="evenodd" d="M33.1939 29.4909C34.62 27.2008 35.5457 24.5667 35.8182 21.7417H24.9565C24.1061 24.6114 21.4494 26.7049 18.3038 26.7049C15.1582 26.7049 12.5015 24.6114 11.6511 21.7417H0C0.879323 30.8583 8.56185 37.9859 17.9091 37.9859C21.4869 37.9859 24.8208 36.9416 27.6227 35.1413L35.3935 36.9697L33.1939 29.4909Z" fill="white"/>
</svg>
